<svg width="547" height="278" viewBox="0 0 547 278" fill="none" xmlns="http://www.w3.org/2000/svg">
<g filter="url(#filter0_d_79_57)">
<path d="M444 308.5C444 424.204 350.204 518 234.5 518C118.796 518 25 424.204 25 308.5C25 192.796 118.796 99 234.5 99C350.204 99 444 192.796 444 308.5ZM94.1603 308.5C94.1603 386.007 156.993 448.84 234.5 448.84C312.007 448.84 374.84 386.007 374.84 308.5C374.84 230.993 312.007 168.16 234.5 168.16C156.993 168.16 94.1603 230.993 94.1603 308.5Z" fill="url(#paint0_linear_79_57)"/>
</g>
<defs>
<filter id="filter0_d_79_57" x="-74" y="0" width="621" height="621" filterUnits="userSpaceOnUse" color-interpolation-filters="sRGB">
<feFlood flood-opacity="0" result="BackgroundImageFix"/>
<feColorMatrix in="SourceAlpha" type="matrix" values="0 0 0 0 0 0 0 0 0 0 0 0 0 0 0 0 0 0 127 0" result="hardAlpha"/>
<feMorphology radius="1" operator="dilate" in="SourceAlpha" result="effect1_dropShadow_79_57"/>
<feOffset dx="2" dy="2"/>
<feGaussianBlur stdDeviation="50"/>
<feComposite in2="hardAlpha" operator="out"/>
<feColorMatrix type="matrix" values="0 0 0 0 0 0 0 0 0 0 0 0 0 0 0 0 0 0 0.5 0"/>
<feBlend mode="normal" in2="BackgroundImageFix" result="effect1_dropShadow_79_57"/>
<feBlend mode="normal" in="SourceGraphic" in2="effect1_dropShadow_79_57" result="shape"/>
</filter>
<linearGradient id="paint0_linear_79_57" x1="423.05" y1="256.125" x2="25" y2="359.828" gradientUnits="userSpaceOnUse">
<stop stop-color="#006E74"/>
<stop offset="1" stop-color="#002F32"/>
</linearGradient>
</defs>
</svg>
