<svg width="559" height="297" viewBox="0 0 559 297" fill="none" xmlns="http://www.w3.org/2000/svg">
<g filter="url(#filter0_d_79_56)">
<path d="M456 15.5C456 114.083 376.083 194 277.5 194C178.917 194 99 114.083 99 15.5C99 -83.0828 178.917 -163 277.5 -163C376.083 -163 456 -83.0828 456 15.5ZM157.927 15.5C157.927 81.5386 211.461 135.073 277.5 135.073C343.539 135.073 397.073 81.5386 397.073 15.5C397.073 -50.5386 343.539 -104.073 277.5 -104.073C211.461 -104.073 157.927 -50.5386 157.927 15.5Z" fill="url(#paint0_linear_79_56)"/>
</g>
<defs>
<filter id="filter0_d_79_56" x="0" y="-262" width="559" height="559" filterUnits="userSpaceOnUse" color-interpolation-filters="sRGB">
<feFlood flood-opacity="0" result="BackgroundImageFix"/>
<feColorMatrix in="SourceAlpha" type="matrix" values="0 0 0 0 0 0 0 0 0 0 0 0 0 0 0 0 0 0 127 0" result="hardAlpha"/>
<feMorphology radius="1" operator="dilate" in="SourceAlpha" result="effect1_dropShadow_79_56"/>
<feOffset dx="2" dy="2"/>
<feGaussianBlur stdDeviation="50"/>
<feComposite in2="hardAlpha" operator="out"/>
<feColorMatrix type="matrix" values="0 0 0 0 0 0 0 0 0 0 0 0 0 0 0 0 0 0 0.5 0"/>
<feBlend mode="normal" in2="BackgroundImageFix" result="effect1_dropShadow_79_56"/>
<feBlend mode="normal" in="SourceGraphic" in2="effect1_dropShadow_79_56" result="shape"/>
</filter>
<linearGradient id="paint0_linear_79_56" x1="438.15" y1="-29.125" x2="99" y2="59.2325" gradientUnits="userSpaceOnUse">
<stop stop-color="#002F32"/>
<stop offset="1" stop-color="#006E74"/>
</linearGradient>
</defs>
</svg>
