<svg width="98" height="545" viewBox="0 0 98 545" fill="none" xmlns="http://www.w3.org/2000/svg">
<g filter="url(#filter0_d_79_55)">
<path d="M590 344.5C590 480.086 480.086 590 344.5 590C208.914 590 99 480.086 99 344.5C99 208.914 208.914 99 344.5 99C480.086 99 590 208.914 590 344.5ZM180.045 344.5C180.045 435.326 253.674 508.955 344.5 508.955C435.326 508.955 508.955 435.326 508.955 344.5C508.955 253.674 435.326 180.045 344.5 180.045C253.674 180.045 180.045 253.674 180.045 344.5Z" fill="url(#paint0_linear_79_55)"/>
</g>
<defs>
<filter id="filter0_d_79_55" x="0" y="0" width="693" height="693" filterUnits="userSpaceOnUse" color-interpolation-filters="sRGB">
<feFlood flood-opacity="0" result="BackgroundImageFix"/>
<feColorMatrix in="SourceAlpha" type="matrix" values="0 0 0 0 0 0 0 0 0 0 0 0 0 0 0 0 0 0 127 0" result="hardAlpha"/>
<feMorphology radius="1" operator="dilate" in="SourceAlpha" result="effect1_dropShadow_79_55"/>
<feOffset dx="2" dy="2"/>
<feGaussianBlur stdDeviation="50"/>
<feComposite in2="hardAlpha" operator="out"/>
<feColorMatrix type="matrix" values="0 0 0 0 0 0 0 0 0 0 0 0 0 0 0 0 0 0 0.5 0"/>
<feBlend mode="normal" in2="BackgroundImageFix" result="effect1_dropShadow_79_55"/>
<feBlend mode="normal" in="SourceGraphic" in2="effect1_dropShadow_79_55" result="shape"/>
</filter>
<linearGradient id="paint0_linear_79_55" x1="565.45" y1="283.125" x2="99" y2="404.648" gradientUnits="userSpaceOnUse">
<stop stop-color="#002F32"/>
<stop offset="1" stop-color="#006E74"/>
</linearGradient>
</defs>
</svg>
